HIERARCHY
ROOT Hips
{
	OFFSET 0.000000 0.000000 0.000000
	CHANNELS 6 Xposition Yposition Zposition Yrotation Xrotation Zrotation
	JOINT Chest
	{
		OFFSET 0.000000 -0.009281 11.569106
		CHANNELS 3 Yrotation Xrotation Zrotation
		JOINT Chest2
		{
			OFFSET -0.000000 0.016865 9.269641
			CHANNELS 3 Yrotation Xrotation Zrotation
			JOINT Chest3
			{
				OFFSET -0.000000 0.000001 8.374491
				CHANNELS 3 Yrotation Xrotation Zrotation
				JOINT Chest4
				{
					OFFSET -0.000000 0.000001 8.374493
					CHANNELS 3 Yrotation Xrotation Zrotation
					JOINT Neck
					{
						OFFSET -0.000000 0.000002 12.152554
						CHANNELS 3 Yrotation Xrotation Zrotation
						JOINT Head
						{
							OFFSET -0.000000 0.040101 7.802319
							CHANNELS 3 Yrotation Xrotation Zrotation
							End Site
							{
								OFFSET -0.000000 0.020947 14.853096
							}
						}
					}
					JOINT RightCollar
					{
						OFFSET 2.894404 0.000001 6.791374
						CHANNELS 3 Yrotation Xrotation Zrotation
						JOINT RightShoulder
						{
							OFFSET 13.574684 0.000001 0.000000
							CHANNELS 3 Yrotation Xrotation Zrotation
							JOINT RightElbow
							{
								OFFSET 23.923903 0.000002 0.000000
								CHANNELS 3 Yrotation Xrotation Zrotation
								JOINT RightWrist
								{
									OFFSET 19.846718 0.012767 0.000000
									CHANNELS 3 Yrotation Xrotation Zrotation
									End Site
									{
										OFFSET 14.973145 0.000001 0.000000
									}
								}
							}
						}
					}
					JOINT LeftCollar
					{
						OFFSET -2.894404 0.000001 6.791374
						CHANNELS 3 Yrotation Xrotation Zrotation
						JOINT LeftShoulder
						{
							OFFSET -13.574684 -0.000001 0.000000
							CHANNELS 3 Yrotation Xrotation Zrotation
							JOINT LeftElbow
							{
								OFFSET -23.923903 -0.000002 0.000000
								CHANNELS 3 Yrotation Xrotation Zrotation
								JOINT LeftWrist
								{
									OFFSET -19.846718 0.012763 0.000000
									CHANNELS 3 Yrotation Xrotation Zrotation
									End Site
									{
										OFFSET -14.973145 -0.000001 0.000000
									}
								}
							}
						}
					}
				}
			}
		}
	}
	JOINT RightHip
	{
		OFFSET 9.469263 0.004643 0.045487
		CHANNELS 3 Yrotation Xrotation Zrotation
		JOINT RightKnee
		{
			OFFSET 0.000000 0.002661 -40.478676
			CHANNELS 3 Yrotation Xrotation Zrotation
			JOINT RightAnkle
			{
				OFFSET 0.000000 0.049106 -35.224068
				CHANNELS 3 Yrotation Xrotation Zrotation
				JOINT RightToe
				{
					OFFSET -0.000001 12.539529 -6.151390
					CHANNELS 3 Yrotation Xrotation Zrotation
					End Site
					{
						OFFSET -0.000001 5.044994 -1.291870
					}
				}
			}
		}
	}
	JOINT LeftHip
	{
		OFFSET -9.469263 0.004641 0.045487
		CHANNELS 3 Yrotation Xrotation Zrotation
		JOINT LeftKnee
		{
			OFFSET 0.000000 0.002661 -40.478676
			CHANNELS 3 Yrotation Xrotation Zrotation
			JOINT LeftAnkle
			{
				OFFSET 0.000000 0.049106 -35.224068
				CHANNELS 3 Yrotation Xrotation Zrotation
				JOINT LeftToe
				{
					OFFSET -0.000001 12.539529 -6.151390
					CHANNELS 3 Yrotation Xrotation Zrotation
					End Site
					{
						OFFSET -0.000001 5.044994 -1.291870
					}
				}
			}
		}
	}
}
MOTION
Frames: 12
Frame Time: 0.016667
36.293877 -15.896996 82.338951 -5.378193 -1.186801 -94.667467 0.211067 -8.910462 0.956845 0.104913 -3.965740 0.433233 0.104913 -3.965739 0.433232 0.081468 -2.974233 0.325477 0.299526 -26.661128 0.913708 0.735084 -13.336106 1.694722 9.192728 8.175427 -0.770469 41.187407 -14.938266 -13.034841 -50.089612 -58.126214 116.770171 -68.272508 38.762321 32.566154 -7.477739 4.883538 -5.188647 -41.029097 -14.738066 19.635708 20.201586 -58.875288 -82.322002 39.155634 26.075620 -67.069138 6.378677 -5.409089 -17.958791 6.374774 -0.108216 -5.718636 -9.609823 1.888228 -4.998389 0.150176 -0.036308 0.017114 10.198739 12.182401 30.748982 -3.838503 -1.997793 22.033357 3.856125 -14.367195 4.249783 -0.377993 1.476094 -0.103779 
36.348721 -15.829194 82.320076 -5.462028 -1.356130 -94.763213 0.293596 -8.915211 0.996398 0.141308 -3.967055 0.452527 0.141308 -3.967055 0.452527 0.108880 -2.975188 0.340178 0.316090 -26.700123 0.872904 0.755152 -13.408232 1.625340 9.178463 8.114020 -0.777710 41.150056 -14.932563 -13.024310 -50.067018 -58.127095 116.879290 -68.348856 38.773485 32.525873 -7.468413 4.837116 -5.204362 -41.074473 -14.665287 19.669000 20.180526 -58.842722 -82.248373 39.123180 25.916530 -67.028512 6.437165 -5.471176 -17.790614 6.412189 -0.269754 -5.798856 -9.601724 1.993866 -4.993032 0.152016 -0.044133 0.012875 10.200351 11.792620 31.026237 -3.773661 -1.883985 21.865684 3.720921 -14.453698 4.189786 -0.288647 1.386116 -0.094376 
36.414082 -15.760095 82.299232 -5.541209 -1.528378 -94.882632 0.379604 -8.913448 1.032187 0.178632 -3.962965 0.470649 0.178632 -3.962965 0.470649 0.136977 -2.972088 0.354006 0.314289 -26.731803 0.847251 0.745931 -13.466710 1.578988 9.174143 8.092317 -0.771463 41.096026 -14.958975 -13.046664 -50.024036 -58.155331 116.975227 -68.428319 38.793805 32.482566 -7.467437 4.800168 -5.202863 -41.114498 -14.582809 19.689559 20.192015 -58.829362 -82.193574 39.070810 25.761100 -66.994081 6.503308 -5.536712 -17.694549 6.442085 -0.437801 -5.787043 -9.599968 2.101924 -5.038581 0.160643 -0.050483 0.008794 10.214206 11.436891 31.176778 -3.711025 -1.795178 21.783720 3.550712 -14.447817 4.209026 -0.192999 1.245235 -0.081772 
36.485466 -15.699075 82.278336 -5.622439 -1.709245 -95.001900 0.480564 -8.906628 1.048383 0.216688 -3.958599 0.483727 0.216688 -3.958599 0.483726 0.165588 -2.968780 0.364056 0.298723 -26.755381 0.832577 0.714699 -13.510071 1.549255 9.173811 8.059370 -0.755564 41.014343 -14.965902 -13.062311 -49.964541 -58.205410 117.071491 -68.535266 38.823277 32.423062 -7.474626 4.772369 -5.202629 -41.165598 -14.492763 19.713285 20.236543 -58.830639 -82.144540 39.020857 25.637451 -66.966863 6.589056 -5.613826 -17.653000 6.455537 -0.598670 -5.717869 -9.608391 2.202921 -5.028126 0.181834 -0.055892 0.016414 10.248171 11.096155 31.257927 -3.685907 -1.707992 21.753282 3.340659 -14.371377 4.201299 -0.057117 1.074333 -0.069257 
36.576099 -15.640550 82.259010 -5.711091 -1.876698 -95.145266 0.564050 -8.896546 1.064140 0.253595 -3.950221 0.494146 0.253595 -3.950221 0.494146 0.193319 -2.962462 0.372104 0.278851 -26.776389 0.827416 0.677912 -13.548720 1.535564 9.168334 7.980612 -0.733448 40.936028 -14.935903 -13.067762 -49.933614 -58.237984 117.182045 -68.644754 38.848723 32.366907 -7.475736 4.693330 -5.206409 -41.233391 -14.385311 19.724391 20.271954 -58.826589 -82.075255 38.973783 25.560964 -66.936434 6.682869 -5.721328 -17.616228 6.448609 -0.726364 -5.620306 -9.618855 2.289458 -5.069448 0.202816 -0.055810 0.018693 10.273169 10.744032 31.322240 -3.692905 -1.602953 21.735122 3.111757 -14.243523 4.187685 0.089039 0.892251 -0.057157 
36.673447 -15.587988 82.240829 -5.794011 -2.030754 -95.336846 0.628439 -8.867279 1.094253 0.288991 -3.938323 0.503045 0.288991 -3.938324 0.503044 0.219904 -2.953509 0.378999 0.254997 -26.796637 0.830904 0.635936 -13.586033 1.536430 9.157446 7.891132 -0.700746 40.877463 -14.895075 -13.085139 -49.934751 -58.244643 117.289074 -68.742828 38.874541 32.314400 -7.478296 4.604486 -5.208127 -41.323918 -14.311079 19.747422 20.217148 -58.794876 -81.928850 38.931600 25.487706 -66.920035 6.759969 -5.835356 -17.531096 6.444275 -0.845658 -5.547249 -9.629020 2.369916 -5.063050 0.218487 -0.046707 0.015454 10.261861 10.372952 31.424024 -3.695410 -1.450857 21.671927 2.873931 -14.099519 4.209359 0.218422 0.723249 -0.046961 
36.781498 -15.531137 82.224747 -5.879687 -2.189412 -95.557939 0.689775 -8.834086 1.117779 0.320286 -3.923642 0.513112 0.320286 -3.923641 0.513112 0.243421 -2.942465 0.386743 0.234061 -26.813069 0.838870 0.600179 -13.616342 1.545947 9.139310 7.815657 -0.681933 40.833026 -14.859080 -13.097304 -49.958698 -58.255981 117.399450 -68.815447 38.895916 32.271496 -7.485752 4.537237 -5.213711 -41.421812 -14.261741 19.798213 20.156593 -58.746252 -81.785286 38.886432 25.414866 -66.910316 6.818538 -5.941299 -17.433836 6.453529 -0.997535 -5.499203 -9.639705 2.473201 -5.029705 0.232323 -0.043274 0.011361 10.227645 9.966616 31.540277 -3.669377 -1.277532 21.472489 2.591282 -13.930920 4.200641 0.314301 0.560677 -0.035246 
36.893879 -15.469728 82.211456 -5.963344 -2.340879 -95.825607 0.736929 -8.794132 1.148266 0.344388 -3.906851 0.524725 0.344388 -3.906851 0.524726 0.261549 -2.929847 0.395596 0.218673 -26.822011 0.850407 0.575172 -13.632857 1.563094 9.128801 7.784625 -0.671776 40.788964 -14.850081 -13.114399 -49.988915 -58.289155 117.500755 -68.869863 38.904703 32.232851 -7.484590 4.493491 -5.219603 -41.515976 -14.205914 19.860167 20.108907 -58.701405 -81.664727 38.829943 25.344090 -66.886513 6.865476 -6.026376 -17.305741 6.446107 -1.186886 -5.436658 -9.654989 2.586690 -5.041287 0.254405 -0.038922 0.009946 10.196713 9.537392 31.632529 -3.652184 -1.136680 21.218929 2.283912 -13.710880 4.202256 0.370143 0.412940 -0.024335 
37.015224 -15.407617 82.200340 -6.042214 -2.479262 -96.128895 0.772010 -8.746747 1.175343 0.362320 -3.885114 0.536547 0.362320 -3.885114 0.536546 0.275051 -2.913520 0.404563 0.203613 -26.819190 0.860992 0.550677 -13.627529 1.578688 9.117948 7.769393 -0.666800 40.742987 -14.849318 -13.137327 -50.020740 -58.344794 117.595422 -68.904950 38.911072 32.206084 -7.487253 4.473318 -5.216876 -41.601361 -14.132930 19.934640 20.090894 -58.686433 -81.583195 38.769629 25.256337 -66.869492 6.909316 -6.106175 -17.193849 6.415380 -1.391832 -5.321820 -9.678390 2.706499 -5.072811 0.285221 -0.034012 0.011801 10.167631 9.109914 31.663517 -3.669849 -1.022003 21.062521 2.018787 -13.476014 4.152152 0.392586 0.304636 -0.018752 
37.147873 -15.351405 82.191917 -6.116078 -2.601174 -96.451027 0.797262 -8.687746 1.188220 0.374474 -3.856561 0.544741 0.374474 -3.856560 0.544740 0.284192 -2.892091 0.410768 0.183873 -26.805205 0.871406 0.517938 -13.601388 1.593019 9.104949 7.724431 -0.667720 40.702504 -14.836282 -13.141093 -50.042330 -58.417495 117.661934 -68.940542 38.924244 32.180105 -7.498885 4.430033 -5.210047 -41.657382 -14.031845 20.003636 20.068593 -58.690094 -81.519578 38.705613 25.159186 -66.849875 6.946909 -6.210191 -17.155350 6.365829 -1.573089 -5.129254 -9.691723 2.819518 -5.033808 0.311700 -0.026995 0.013151 10.148856 8.703027 31.660628 -3.752499 -0.860131 21.081362 1.914202 -13.348228 3.985876 0.362496 0.265638 -0.018184 
37.289795 -15.301744 82.188736 -6.181658 -2.692938 -96.773569 0.811383 -8.629790 1.185515 0.376715 -3.828517 0.545265 0.376715 -3.828517 0.545264 0.285852 -2.871055 0.411160 0.154427 -26.768681 0.883182 0.468467 -13.533268 1.607772 9.108430 7.725538 -0.657538 40.675614 -14.835847 -13.175758 -50.057012 -58.476869 117.685484 -68.958997 38.938502 32.163692 -7.514854 4.430299 -5.201149 -41.699008 -13.949864 20.069956 20.020246 -58.717183 -81.437582 38.615222 25.079792 -66.853038 6.958657 -6.331659 -17.140452 6.319389 -1.712114 -4.909776 -9.696855 2.915151 -4.958778 0.324415 -0.019778 0.011522 10.142150 8.334619 31.708156 -3.813570 -0.622169 21.152929 1.926645 -13.425042 3.765162 0.266510 0.295848 -0.013669 
37.442429 -15.253324 82.192001 -6.258902 -2.765669 -97.073223 0.823495 -8.581071 1.153010 0.373263 -3.801615 0.537033 0.373263 -3.801616 0.537034 0.283189 -2.850889 0.404953 0.114019 -26.709231 0.892048 0.399091 -13.422406 1.615029 9.096127 7.733053 -0.660393 40.685289 -14.825450 -13.229621 -50.119095 -58.511068 117.708215 -68.960875 38.952121 32.154618 -7.535195 4.415052 -5.190367 -41.727763 -13.888105 20.110558 19.979717 -58.770827 -81.378432 38.548949 25.041126 -66.854185 6.948516 -6.471987 -17.104243 6.275604 -1.826149 -4.765673 -9.680897 3.001933 -4.924198 0.322139 -0.008452 0.004266 10.218763 8.064646 31.787301 -3.821311 -0.556629 21.119522 1.921616 -13.621085 3.645770 0.114590 0.406704 -0.006144 
